<?xml version="1.0" encoding="utf-8"?>

<!-- License Agreement at http://iconmonstr.com/license/ -->

<!DOCTYPE svg PUBLIC "-//W3C//DTD SVG 1.1//EN" "http://www.w3.org/Graphics/SVG/1.1/DTD/svg11.dtd">
<svg version="1.1" xmlns="http://www.w3.org/2000/svg" xmlns:xlink="http://www.w3.org/1999/xlink" x="0px" y="0px"
	 width="512px" height="512px" viewBox="0 0 512 512" style="enable-background:new 0 0 512 512;" xml:space="preserve">
<path id="script-4-icon" d="M212.237,270.481l90.03-52.749l14.278,18.475l-90.594,53.08L212.237,270.481z M331.99,255.013
	l-91.046,53.345l13.715,18.805l91.61-53.675L331.99,255.013z M398.378,350.531c-27.89,18.288,0.027,0.019,0.023,0.035
	S235.193,453.498,235.193,453.498l-0.018-0.027c-25.313,15.086-55.45,9.07-74.02-9.498c-26.845-26.846-22.159-72.343,10.214-93.331
	l18.57,23.845c-28.159,14.992-17.245,57.496,14.3,57.496c25.081,0,39.478-28.771,24.396-48.828c0,0-100.99-129.154-126.172-160.816
	c-26.242-32.995-16.758-77.227,19.339-94.523l142.465-72.917l0.022,0.044c26.344-11.71,57.908-2.109,72.929,23.509
	c14.614,24.928,8.52,57.563-15.524,75.311L180.862,233.34l-18.603-23.969c28.136-15.033,17.167-57.477-14.339-57.477
	c-21.359,0-42.345,25.754-21.865,51.948c24.579,31.436,124.495,158.655,124.495,158.655c8.988,10.672,13.737,23.686,14.176,36.916
	c0,0,99.771-62.884,115.14-72.74c15.862-10.173,18.797-29.412,7.134-42.976c-0.233-0.272-77.917-95.616-77.917-95.616l25.987-15.615
	c0,0,57.22,70.255,77.981,95.685C432.851,292.401,426.268,332.243,398.378,350.531z M311.794,94.513
	c-7.301-13.975-23.488-17.664-35.745-11.954l-95.519,48.889c17.389,11.147,28.407,30.661,27.891,52.463l92.796-52.559
	C315.739,123.03,318.09,106.565,311.794,94.513z"/>
</svg>
