<?xml version="1.0" encoding="utf-8"?>

<!-- License Agreement at http://iconmonstr.com/license/ -->

<!DOCTYPE svg PUBLIC "-//W3C//DTD SVG 1.1//EN" "http://www.w3.org/Graphics/SVG/1.1/DTD/svg11.dtd">
<svg version="1.1" xmlns="http://www.w3.org/2000/svg" xmlns:xlink="http://www.w3.org/1999/xlink" x="0px" y="0px"
	 width="512px" height="512px" viewBox="0 0 512 512" style="enable-background:new 0 0 512 512;" xml:space="preserve">
<path id="paintbrush-3-icon" d="M356.102,181.709c18.81-18.818,49.354-32.011,63.302-53.327
	c15.306-23.386,8.718-54.794-14.602-70.125c-23.386-15.306-54.702-8.717-70.059,14.661c-14.45,22.07-13.745,57.032-24.593,82.044
	c-14.031,32.305-60.988,36.319-114.986,8.13c-29.656,57.543-69.957,119.296-110.829,169.504l38.843,25.481
	c17.468-2.984,39.128-18.173,47.929-34.853c-0.688,20.032-8.197,37.77-22.95,51.215l73.394,48.013
	c9.371-9.338,18.089-16.747,27.745-23.085c-5.482,11.031-9.136,22.732-10.812,34.166L281.937,462
	c25.749-49.521,75.808-126.068,110.812-169.504C344.35,253.494,329.967,207.77,356.102,181.709z M386.345,86.521
	c7.794,5.08,9.957,15.591,4.827,23.354c-5.045,7.837-15.54,9.991-23.285,4.903c-7.829-5.104-9.991-15.548-4.878-23.353
	C368.088,83.604,378.55,81.409,386.345,86.521z M318.382,344.65l-141.188-92.456l27.745-42.388l141.121,92.464L318.382,344.65z"/>
</svg>
